HIERARCHY
ROOT Hips
{
	OFFSET 0.000000 0.000000 0.000000
	CHANNELS 6 Xposition Yposition Zposition Zrotation Yrotation Xrotation 
	JOINT LHipJoint
	{
		OFFSET 0.000000 0.000000 0.000000
		CHANNELS 3 Zrotation Yrotation Xrotation
		JOINT LeftUpLeg
		{
			OFFSET 1.363060 -1.794630 0.839290
			CHANNELS 3 Zrotation Yrotation Xrotation
			JOINT LeftLeg
			{
				OFFSET 2.448110 -6.726130 0.000000
				CHANNELS 3 Zrotation Yrotation Xrotation
				JOINT LeftFoot
				{
					OFFSET 2.562200 -7.039590 0.000000
					CHANNELS 3 Zrotation Yrotation Xrotation
					JOINT LeftToeBase
					{
						OFFSET 0.157640 -0.433110 2.322550
						CHANNELS 3 Zrotation Yrotation Xrotation
						End Site
						{
							OFFSET 0.000000 0.000000 0.000000
						}
					}
				}
			}
		}
	}
	JOINT RHipJoint
	{
		OFFSET 0.000000 0.000000 0.000000
		CHANNELS 3 Zrotation Yrotation Xrotation
		JOINT RightUpLeg
		{
			OFFSET -1.305520 -1.794630 0.839290
			CHANNELS 3 Zrotation Yrotation Xrotation
			JOINT RightLeg
			{
				OFFSET -2.542530 -6.985550 0.000000
				CHANNELS 3 Zrotation Yrotation Xrotation
				JOINT RightFoot
				{
					OFFSET -2.568260 -7.056230 0.000000
					CHANNELS 3 Zrotation Yrotation Xrotation
					JOINT RightToeBase
					{
						OFFSET -0.164730 -0.452590 2.363150
						CHANNELS 3 Zrotation Yrotation Xrotation
						End Site
						{
							OFFSET 0.000000 0.000000 0.000000
						}
					}
				}
			}
		}
	}
	JOINT LowerBack
	{
		OFFSET 0.000000 0.000000 0.000000
		CHANNELS 3 Zrotation Yrotation Xrotation
		JOINT Spine
		{
			OFFSET 0.028270 2.035590 -0.193380
			CHANNELS 3 Zrotation Yrotation Xrotation
			JOINT Spine1
			{
				OFFSET 0.056720 2.048850 -0.042750
				CHANNELS 3 Zrotation Yrotation Xrotation
				JOINT Neck
				{
					OFFSET 0.000000 0.000000 0.000000
					CHANNELS 3 Zrotation Yrotation Xrotation
					JOINT Neck1
					{
						OFFSET -0.054170 1.746240 0.172020
						CHANNELS 3 Zrotation Yrotation Xrotation
						JOINT Head
						{
							OFFSET 0.104070 1.761360 -0.123970
							CHANNELS 3 Zrotation Yrotation Xrotation
							End Site
							{
								OFFSET 0.000000 0.000000 0.000000
							}
						}
					}
				}
				JOINT LeftShoulder
				{
					OFFSET 0.000000 0.000000 0.000000
					CHANNELS 3 Zrotation Yrotation Xrotation
					JOINT LeftArm
					{
						OFFSET 3.362410 1.200890 -0.311210
						CHANNELS 3 Zrotation Yrotation Xrotation
						JOINT LeftForeArm
						{
							OFFSET 4.983000 -0.000000 -0.000000
							CHANNELS 3 Zrotation Yrotation Xrotation
							JOINT LeftHand
							{
								OFFSET 3.483560 -0.000000 -0.000000
								CHANNELS 3 Zrotation Yrotation Xrotation
								JOINT LeftFingerBase
								{
									OFFSET 0.000000 0.000000 0.000000
									CHANNELS 3 Zrotation Yrotation Xrotation
									JOINT LeftHandIndex1
									{
										OFFSET 0.715260 -0.000000 -0.000000
										CHANNELS 3 Zrotation Yrotation Xrotation
										End Site
										{
											OFFSET 0.000000 0.000000 0.000000
										}
									}
								}
								JOINT LThumb
								{
									OFFSET 0.000000 0.000000 0.000000
									CHANNELS 3 Zrotation Yrotation Xrotation
									End Site
									{
										OFFSET 0.000000 0.000000 0.000000
									}
								}
							}
						}
					}
				}
				JOINT RightShoulder
				{
					OFFSET 0.000000 0.000000 0.000000
					CHANNELS 3 Zrotation Yrotation Xrotation
					JOINT RightArm
					{
						OFFSET -3.136600 1.374050 -0.404650
						CHANNELS 3 Zrotation Yrotation Xrotation
						JOINT RightForeArm
						{
							OFFSET -5.241900 -0.000000 -0.000000
							CHANNELS 3 Zrotation Yrotation Xrotation
							JOINT RightHand
							{
								OFFSET -3.444170 -0.000000 -0.000000
								CHANNELS 3 Zrotation Yrotation Xrotation
								JOINT RightFingerBase
								{
									OFFSET 0.000000 0.000000 0.000000
									CHANNELS 3 Zrotation Yrotation Xrotation
									JOINT RightHandIndex1
									{
										OFFSET -0.622530 -0.000000 -0.000000
										CHANNELS 3 Zrotation Yrotation Xrotation
										End Site
										{
											OFFSET 0.000000 0.000000 0.000000
										}
									}
								}
								JOINT RThumb
								{
									OFFSET 0.000000 0.000000 0.000000
									CHANNELS 3 Zrotation Yrotation Xrotation
									End Site
									{
										OFFSET 0.000000 0.000000 0.000000
									}
								}
							}
						}
					}
				}
			}
		}
	}
}
MOTION
Frames: 9
Frame Time: 0.033333
0.061550 18.105423 -0.174721 -5.719444 0.497402 20.139662 -17.280280 7.297401 -1.405809 8.260400 8.954350 -16.570172 -18.372644 11.612504 -7.376952 1.300155 13.820114 -5.021961 0.000000 0.000000 0.000000 6.953592 -6.133986 3.134738 8.287483 19.249173 -23.310235 -5.494531 12.920343 -1.450952 0.755111 11.262786 3.942783 0.000000 0.000000 0.000000 4.537605 1.346079 20.072892 -2.499468 5.059220 -7.782144 0.476152 4.256811 -8.631503 5.700022 1.594933 12.148300 0.595249 0.186824 -6.448456 0.000000 0.000000 0.000000 9.718661 -5.763417 -0.632210 -31.419120 -7.057759 -9.273577 177.470223 -79.910391 -177.084155 -23.244483 -15.823317 1.563660 -23.816784 -15.361999 0.000000 0.000000 0.000000 0.000000 0.000000 0.000000 0.000000 -10.727602 -5.138441 -18.088191 112.920175 -13.549383 29.275652 5.876788 83.921455 0.523246 -2.979795 9.077356 0.314540 -2.798241 9.047534 0.000000 0.000000 0.000000 0.000000 0.000000 0.000000 0.000000 
0.019768 18.274243 -0.158766 -5.286026 -0.188068 21.017968 -19.314382 8.614159 -1.344853 8.802181 7.387279 -21.974392 -15.200931 14.524826 -1.153307 1.154244 13.832666 -3.730339 0.000000 0.000000 0.000000 12.724339 -5.880907 5.895304 -2.981467 18.301292 -30.655787 0.723561 11.585030 1.138385 0.811183 10.063037 5.138856 0.000000 0.000000 0.000000 0.981579 -0.241112 17.381081 -2.945844 2.541801 -5.996824 6.038463 5.757124 -20.889058 7.383137 0.091610 13.860043 -2.566185 -1.143834 7.731197 0.000000 0.000000 0.000000 5.260143 2.108643 1.244619 -36.968775 -9.727606 3.084230 179.083049 -79.577418 -177.470558 -7.852713 -11.732186 1.282123 -8.132973 -11.723463 0.000000 0.000000 0.000000 0.000000 0.000000 0.000000 0.000000 -2.185270 -9.606867 -15.579883 100.515080 -18.583881 27.787346 23.980597 64.263736 0.745334 -1.321385 1.135302 0.388037 -1.198977 1.091703 0.000000 0.000000 0.000000 0.000000 0.000000 0.000000 0.000000 
0.231683 18.318711 -0.201639 -5.407485 -1.113106 20.021344 -22.080554 7.618739 -0.898656 10.837238 8.133870 -22.624367 -13.250241 15.806835 0.581972 0.960956 13.902696 -4.733475 0.000000 0.000000 0.000000 12.114935 -5.623163 6.684733 -5.393610 17.502453 -30.505992 5.013849 11.535281 -0.082962 0.662859 8.206650 8.426936 0.000000 0.000000 0.000000 3.947536 -0.210942 15.054114 -5.223127 2.006270 0.482318 7.049394 6.967960 -28.492648 3.666881 0.975220 14.536928 -3.542227 -0.953242 6.709534 0.000000 0.000000 0.000000 6.124306 8.803306 0.458741 -50.742859 -17.392123 7.192559 -172.424211 -78.438225 -179.798159 5.752041 -8.054236 0.096473 5.789616 -8.039699 0.000000 0.000000 0.000000 0.000000 0.000000 0.000000 0.000000 1.974385 -13.581733 -15.140849 88.297165 -15.747011 26.184145 35.734129 50.879674 1.098400 0.326168 -1.684826 0.554810 0.405435 -1.717480 0.000000 0.000000 0.000000 0.000000 0.000000 0.000000 0.000000 
0.144867 18.160553 -0.111511 -5.953874 -2.611817 18.691052 -19.806582 8.879216 -1.331815 8.907125 7.978065 -22.335431 -11.437947 17.477558 4.290317 1.100681 12.490206 -8.936696 0.000000 0.000000 0.000000 11.900957 -7.100420 6.022978 -3.979621 19.241888 -33.142223 7.374080 8.333432 9.525959 0.753269 11.770190 0.677876 0.000000 0.000000 0.000000 1.874308 -1.285926 14.413485 -2.055841 1.578063 3.960282 7.541490 6.080388 -28.012531 3.119636 -0.345338 10.145566 -2.478754 -1.165264 10.403984 0.000000 0.000000 0.000000 5.953461 11.931139 -1.291097 -48.988858 -17.267268 4.220967 -168.911271 -75.675442 -179.274261 6.525307 -10.133467 0.359511 6.543657 -10.127230 0.000000 0.000000 0.000000 0.000000 0.000000 0.000000 0.000000 2.886208 -11.343429 -9.213861 84.219145 -8.147140 23.320234 39.739000 45.039254 0.864404 0.760577 0.706691 0.436592 0.821045 0.686308 0.000000 0.000000 0.000000 0.000000 0.000000 0.000000 0.000000 
-0.061685 18.053769 -0.042819 -5.633260 -3.144555 17.568156 -16.761175 10.699282 -1.728618 5.731753 6.618081 -22.522894 -9.268197 18.815218 8.669637 1.075742 11.709221 -10.663624 0.000000 0.000000 0.000000 13.673485 -7.843167 5.395831 -6.982798 18.849449 -36.812508 12.364870 3.631221 18.518732 0.399709 12.879046 -3.902341 0.000000 0.000000 0.000000 -2.151685 -2.833412 13.888109 0.846728 0.453558 5.961969 8.778558 5.674628 -29.115127 4.821333 -1.520412 9.520774 -3.679778 -1.295212 13.964584 0.000000 0.000000 0.000000 3.210408 13.476827 -2.834420 -41.505366 -14.548111 3.876228 -167.572945 -71.681508 -177.947736 3.771151 -14.605329 1.034067 3.651421 -14.660032 0.000000 0.000000 0.000000 0.000000 0.000000 0.000000 0.000000 4.986986 -9.814788 -6.486493 81.702938 -4.286267 21.342668 36.373134 41.118846 -0.026705 -1.804254 1.473516 -0.016162 -1.822144 1.486704 0.000000 0.000000 0.000000 0.000000 0.000000 0.000000 0.000000 
-0.262055 18.047990 -0.020360 -4.495644 -0.145087 18.495802 -14.832708 11.926205 -1.710179 3.068106 4.661072 -23.023241 -9.924531 17.140896 7.991263 1.141040 10.938942 -8.878687 0.000000 0.000000 0.000000 17.604282 -7.003661 6.832527 -14.298896 15.715964 -40.617356 15.381790 1.199629 18.676331 0.286885 11.388519 -5.598997 0.000000 0.000000 0.000000 -6.300632 -3.844444 13.236927 3.273152 -0.448498 4.201727 9.912946 5.288792 -29.433198 5.777386 -0.727087 13.605963 -4.359065 -1.151794 13.361317 0.000000 0.000000 0.000000 1.645259 13.184461 -4.915525 -38.954108 -15.557608 5.112022 -165.238582 -74.928258 -176.989825 -8.568182 -15.124619 1.530766 -8.953055 -15.110663 0.000000 0.000000 0.000000 0.000000 0.000000 0.000000 0.000000 6.597996 -10.982101 -7.348081 79.054897 -4.176486 23.153888 34.230578 39.824266 -0.448862 -3.915580 0.450801 -0.228496 -3.949891 0.472312 0.000000 0.000000 0.000000 0.000000 0.000000 0.000000 0.000000 
-0.381858 18.068276 -0.018020 -2.695615 3.790521 19.600375 -14.044632 11.707108 -2.180408 0.721165 3.005562 -22.862805 -9.835312 15.345222 7.257785 1.115318 10.210238 -6.720188 0.000000 0.000000 0.000000 21.684006 -3.838981 8.392144 -23.988901 9.974389 -40.955578 20.587593 -0.941495 14.515152 0.285451 7.750547 -5.711889 0.000000 0.000000 0.000000 -9.124654 -4.544923 13.669103 5.441780 -1.120759 0.543088 10.031188 4.069842 -28.331860 6.491554 -0.123658 15.767669 -4.140542 -0.985810 12.098072 0.000000 0.000000 0.000000 1.602895 11.960412 -5.783872 -40.213422 -18.317710 8.397991 -167.207495 -80.165138 -178.461053 -20.083255 -14.502414 0.825737 -20.410301 -14.201834 0.000000 0.000000 0.000000 0.000000 0.000000 0.000000 0.000000 5.466603 -12.334313 -8.941651 78.302168 -3.973327 24.661950 34.699793 39.959864 -0.277591 -4.043573 -0.810147 -0.140838 -4.059072 -0.798678 0.000000 0.000000 0.000000 0.000000 0.000000 0.000000 0.000000 
-0.506464 18.112337 -0.103377 -0.323325 9.675913 19.042022 -13.976676 9.338394 -2.145166 0.567055 2.781946 -19.785237 -12.134538 12.608399 3.931882 1.041546 9.909528 -3.382799 0.000000 0.000000 0.000000 24.805786 7.088083 6.940768 -30.157177 2.134502 -22.015895 21.210982 2.592008 -3.095077 -0.024495 1.872094 -4.106183 0.000000 0.000000 0.000000 -11.471895 -5.857898 16.083240 6.318811 -2.564169 -1.965704 9.343870 2.232170 -28.303664 6.821309 0.716398 18.335872 -2.284943 -0.791089 10.178585 0.000000 0.000000 0.000000 2.196581 8.720060 -6.002776 -43.210345 -22.814249 15.403059 -171.354313 -87.982632 -179.251580 -21.328684 -13.543320 0.423406 -21.562121 -13.246621 0.000000 0.000000 0.000000 0.000000 0.000000 0.000000 0.000000 3.103141 -14.257361 -14.742629 79.903795 -5.580555 27.109559 38.256842 42.367768 -0.130955 -4.477986 -1.985612 -0.067033 -4.486791 -1.975543 0.000000 0.000000 0.000000 0.000000 0.000000 0.000000 0.000000 
-0.725598 18.163941 -0.158901 1.595127 14.811495 17.979134 -13.280254 7.301158 -1.879868 0.622313 2.895124 -16.238687 -14.478564 9.931750 0.502203 0.829616 10.366024 1.117135 0.000000 0.000000 0.000000 28.537857 18.033028 4.749238 -32.775952 -3.607227 -2.222421 15.132113 4.642430 -16.436957 -0.718492 -3.928953 1.253667 0.000000 0.000000 0.000000 -15.383860 -7.423935 18.652150 7.218171 -4.215431 -2.671027 9.598913 0.619982 -28.433243 8.125083 1.112658 20.560384 -0.882300 -0.511801 7.363243 0.000000 0.000000 0.000000 2.094567 4.987739 -6.853231 -44.300718 -27.946959 21.965945 3.894370 -80.718301 1.567711 -15.549609 -14.921826 0.809756 -15.756281 -14.805700 0.000000 0.000000 0.000000 0.000000 0.000000 0.000000 0.000000 1.702583 -14.986906 -20.219482 80.909192 -7.992637 30.382732 40.452969 47.095616 0.020593 -4.977374 -3.282599 0.009197 -4.980021 -3.275386 0.000000 0.000000 0.000000 0.000000 0.000000 0.000000 0.000000 
